<svg xmlns="http://www.w3.org/2000/svg" width="370" height="47" viewBox="0 0 370 47">
  <defs>
    <style>
      .cls-1 {
        fill: #fff;
        fill-rule: evenodd;
      }
    </style>
  </defs>
  <path id="LA_VALENSIANA" data-name="LA VALENSIANA" class="cls-1" d="M0.927,19.321H22.406V12.729H18.971v4.248H8.362V3.427h4.274V1.084H0.668V3.427H4.9v13.55H0.927v2.344ZM9.461,16.1h0.611V5.156h4.259V1.816H13.72V4.6H9.461V16.1ZM1.584,5.156H4.255V4.6H1.584V5.156Zm0.26,15.19V20.9H24.116V13.549H23.505v6.8H1.843Zm23.982-1.025H36.695V16.977H33.168l2.152-3.735h10.7l2.213,3.735H44.541v2.344H56.3V16.977H52.327L42.465,1.084h-3.3L29.123,16.977h-3.3v2.344ZM44.19,1.831L53.029,16.1h0.7L44.892,1.831h-0.7Zm-7.8,9.58L40.6,4.13l4.32,7.28H36.389Zm1.649-.879h0.748l2.458-4.087L40.877,5.8ZM34.878,16.1h0.779l0.718-1.274h9.785l-0.275-.557H35.916ZM45.2,20.346V20.9H58.021v-3.12H57.38v2.564H45.2Zm-18.7,0V20.9H38.4v-3.12H37.794v2.564H26.5Zm55.338-1.025h3.3L94.673,3.427h3.435V1.084H86.628V3.427h4.366L83.7,16.259,76.477,3.427h4.412V1.084H68.707V3.427H72.34Zm1.145,1.025L83.3,20.9h2.946L95.635,5.009h4.183V1.831H99.207V4.453H95.254L85.865,20.346H82.98Zm0.87-6.05,0.366-.6-4.87-8.687H82.6V1.831H81.988V4.453H78.339Zm3.771-9.287h1.633l0.321-.557H87.621V5.009Zm-17.922,0h2.168L69.7,4.453V5.009ZM99.726,19.321H110.6V16.977h-3.526l2.152-3.735h10.7l2.213,3.735h-3.694v2.344H130.2V16.977h-3.969L116.366,1.084h-3.3L103.024,16.977h-3.3v2.344Zm18.365-17.49L126.93,16.1h0.7L118.793,1.831h-0.7Zm-7.8,9.58L114.5,4.13l4.321,7.28H110.29Zm1.649-.879h0.748l2.458-4.087L114.778,5.8Zm-3.16,5.566h0.778l0.718-1.274h9.785l-0.275-.557h-9.968ZM119.1,20.346V20.9h12.823v-3.12H131.28v2.564H119.1Zm-18.7,0V20.9h11.907v-3.12H111.7v2.564H100.4Zm33.966-1.025h21.479V12.729h-3.435v4.248H141.8V3.427h4.275V1.084H134.1V3.427h4.229v13.55h-3.969v2.344ZM142.9,16.1h0.611V5.156h4.259V1.816h-0.611V4.6H142.9V16.1ZM135.02,5.156h2.672V4.6H135.02V5.156Zm0.26,15.19V20.9h22.272V13.549h-0.61v6.8H135.28Zm26.272-1.025h22.7V13.608h-3.435v3.369H169.261V11.03h7.663V9.2h-7.663V3.427h11.556V6.8h3.435V1.084h-22.7V3.427h4.122v13.55h-4.122v2.344ZM181.733,8.378h4.229V1.816h-0.611V7.822h-3.618V8.378ZM170.36,8.32h0.611V5.009h9.2V4.453H170.36V8.32Zm-7.892-3.311h2.564V4.453h-2.564V5.009ZM170.36,16.1h0.611V12.612h7.648V9.931h-0.611v2.124H170.36V16.1Zm-7.892,4.248V20.9h23.494V14.428h-0.611v5.918H162.468Zm28.959-1.025H202.8V16.977h-4.122V4.2l14.884,15.117h3.282V3.427h4.122V1.084H209.287V3.427h4.122V14.37L200.052,1.084h-8.931V3.427h4.122v13.55h-3.816v2.344Zm23.051,1.025V20.9h4.076V5.009h4.121V1.816h-0.61V4.453h-4.122V20.346h-3.465ZM202.189,1.816l10.625,10.342v-0.85L203,1.816h-0.809ZM210.2,5.009h2.565V4.453H210.2V5.009Zm-18.166,0H194.6l-2.565-.557V5.009Zm7.74,11.089h0.611V6.84L199.777,6.2v9.9Zm-7.434,4.248V20.9h12.166V17.8H203.9v2.549H192.343ZM227.1,19.321h3.435V17.153a18.645,18.645,0,0,0,2.137,1.128,16.888,16.888,0,0,0,2.237.813,17.014,17.014,0,0,0,2.4.5,19.436,19.436,0,0,0,2.6.169,13.514,13.514,0,0,0,3.771-.469,8.771,8.771,0,0,0,2.648-1.216,5.172,5.172,0,0,0,1.558-1.67,3.763,3.763,0,0,0,.511-1.831,4.69,4.69,0,0,0-.489-2.161,4.4,4.4,0,0,0-1.633-1.685,11.2,11.2,0,0,0-3.038-1.238,33.774,33.774,0,0,0-4.7-.85,26.091,26.091,0,0,1-3.3-.564,8.839,8.839,0,0,1-2.053-.747,2.746,2.746,0,0,1-1.054-.908,1.964,1.964,0,0,1-.3-1.033,1.428,1.428,0,0,1,.336-0.864,3.067,3.067,0,0,1,1-.8,6.626,6.626,0,0,1,1.649-.586,10.235,10.235,0,0,1,2.282-.227,10.388,10.388,0,0,1,2.367.264,9.975,9.975,0,0,1,2.083.725,7.738,7.738,0,0,1,1.687,1.091,5.98,5.98,0,0,1,1.191,1.362h3.435V1.084h-3.435V3.09a14.788,14.788,0,0,0-1.466-.989,10.155,10.155,0,0,0-1.7-.8,12.255,12.255,0,0,0-2.015-.535,13.523,13.523,0,0,0-2.4-.2A16.563,16.563,0,0,0,232.873,1a10.267,10.267,0,0,0-2.855,1.121,5.227,5.227,0,0,0-1.725,1.6,3.4,3.4,0,0,0-.58,1.868,4.165,4.165,0,0,0,.5,1.978,4.966,4.966,0,0,0,1.573,1.7,10,10,0,0,0,2.77,1.3,20.347,20.347,0,0,0,4.107.769,31.342,31.342,0,0,1,3.549.527,11.67,11.67,0,0,1,2.412.762,3.715,3.715,0,0,1,1.366.981,1.875,1.875,0,0,1,.428,1.187,1.669,1.669,0,0,1-.374,1.04,3.208,3.208,0,0,1-1.046.842,6.266,6.266,0,0,1-1.588.564,9.218,9.218,0,0,1-2.015.205,14.4,14.4,0,0,1-4.824-.813,13.434,13.434,0,0,1-4.335-2.571H227.1v5.273ZM245.345,7.939H249.6V1.831h-0.641V7.382h-3.618V7.939ZM234.7,4.738a12.142,12.142,0,0,1,2.74-.256,9.416,9.416,0,0,1,1.214.081,11.972,11.972,0,0,1,1.206.22q0.586,0.139,1.122.308t0.962,0.344a6.2,6.2,0,0,0-1.962-1.077,7.679,7.679,0,0,0-2.572-.417,13.214,13.214,0,0,0-1.7.1,8.59,8.59,0,0,0-1.367.278,2.9,2.9,0,0,0-.908.425,0.7,0.7,0,0,0-.328.557A6.015,6.015,0,0,1,234.7,4.738Zm-5.877,5.581a5.334,5.334,0,0,0,1.557,1.084,13.269,13.269,0,0,0,2.442.872,24.052,24.052,0,0,0,3.321.6q1.785,0.205,2.961.381t1.954,0.359A9.3,9.3,0,0,1,242.33,14a7.931,7.931,0,0,1,.939.447,1.552,1.552,0,0,0-.588-0.718,4.345,4.345,0,0,0-1.244-.549,17.236,17.236,0,0,0-2.038-.447q-1.228-.2-2.954-0.4a28.411,28.411,0,0,1-3.091-.483,14.8,14.8,0,0,1-2.305-.688,7.554,7.554,0,0,1-1.68-.908A6.508,6.508,0,0,1,228.156,9.1,2.379,2.379,0,0,0,228.82,10.319Zm-0.8,10.027V20.9h4.259V19.848a15.054,15.054,0,0,0,3.351,1.1,20.664,20.664,0,0,0,4.252.4,17.049,17.049,0,0,0,3.984-.447,11.084,11.084,0,0,0,3.252-1.3,6.785,6.785,0,0,0,2.19-2.1,5.155,5.155,0,0,0,.8-2.856,3.81,3.81,0,0,0-.122-0.945,4.719,4.719,0,0,0-.336-0.908,4.044,4.044,0,0,0-.512-0.791,3.2,3.2,0,0,0-.664-0.608,4.342,4.342,0,0,1,.817,1.546,6.607,6.607,0,0,1,.206,1.707,4.612,4.612,0,0,1-.809,2.71,6.475,6.475,0,0,1-2.152,1.919,11,11,0,0,1-3.069,1.143,16.53,16.53,0,0,1-3.572.381,18.849,18.849,0,0,1-4.427-.483,17.786,17.786,0,0,1-3.832-1.406v1.45h-3.618Zm26.2-1.025h11.831V16.977h-4.091V3.427H266.2V1.084H254.367V3.427h4.121v13.55h-4.274v2.344Zm8.839-3.223h0.611V5.009h4.228V1.816h-0.611V4.453h-4.228V16.1Zm-7.77-11.089h2.564V4.453h-2.564V5.009ZM255.13,20.346V20.9h12.625V17.8h-0.611v2.549H255.13ZM269.6,19.321h10.869V16.977h-3.526l2.152-3.735h10.7l2.214,3.735h-3.695v2.344h11.755V16.977H296.1L286.241,1.084h-3.3L272.9,16.977h-3.3v2.344Zm18.364-17.49L296.805,16.1h0.7L288.669,1.831h-0.7Zm-7.8,9.58,4.213-7.28,4.32,7.28h-8.533Zm1.648-.879h0.748l2.458-4.087L284.654,5.8Zm-3.16,5.566h0.779l0.717-1.274h9.786l-0.275-.557h-9.969Zm10.32,4.248V20.9H301.8v-3.12h-0.641v2.564H288.974Zm-18.7,0V20.9h11.907v-3.12H281.57v2.564h-11.3Zm34.118-1.025h11.373V16.977h-4.122V4.2l14.884,15.117h3.282V3.427h4.122V1.084H322.253V3.427h4.122V14.37L313.017,1.084h-8.93V3.427h4.122v13.55h-3.817v2.344Zm23.051,1.025V20.9h4.076V5.009h4.122V1.816H335.03V4.453h-4.122V20.346h-3.465ZM315.154,1.816l10.625,10.342v-0.85l-9.816-9.492h-0.809Zm8.015,3.193h2.564V4.453h-2.564V5.009ZM305,5.009h2.564L305,4.453V5.009ZM312.742,16.1h0.611V6.84L312.742,6.2v9.9Zm-7.434,4.248V20.9h12.167V17.8h-0.611v2.549H305.308Zm32.012-1.025h10.869V16.977h-3.526l2.152-3.735h10.7l2.214,3.735h-3.694v2.344H367.79V16.977h-3.969L353.959,1.084h-3.3L340.617,16.977h-3.3v2.344Zm18.365-17.49L364.523,16.1h0.7L356.387,1.831h-0.7Zm-7.8,9.58L352.1,4.13l4.32,7.28h-8.533Zm1.648-.879h0.748l2.458-4.087L352.372,5.8Zm-3.16,5.566h0.779l0.718-1.274h9.785l-0.275-.557h-9.968Zm10.32,4.248V20.9h12.823v-3.12h-0.641v2.564H356.692Zm-18.7,0V20.9H349.9v-3.12h-0.611v2.564h-11.3Z"/>
  <path id="ARROCERIA_CATERING" data-name="ARROCERIA &amp; CATERING" class="cls-1" d="M73.3,46.625q0.9-.085,1.637-0.127t1.551-.043q0.364,0,.9.008t1.369,0.043l0.15-.7-0.043-.068a3.283,3.283,0,0,1-1.359-.323,1.725,1.725,0,0,1-.7-0.884q-0.407-.952-0.813-2t-0.781-2.065q-0.375-1.02-.706-1.929t-0.578-1.615q-0.246-.705-0.524-1.5H73.234l-1.348.289L67.714,44.4a2.658,2.658,0,0,1-.706.986,1.84,1.84,0,0,1-.963.323l-0.171.8q0.749-.034,1.294-0.043t1.059-.008q0.706,0,1.391.026T71.2,46.574l0.128-.731-0.043-.068h-1.22a2.209,2.209,0,0,1-.974-0.162,0.557,0.557,0,0,1-.31-0.535,2.011,2.011,0,0,1,.193-0.663l0.792-1.768q0.364-.034,1.038-0.085t1.294-.051h1.145q0.7,0,1.081.017l0.706,1.853a2.2,2.2,0,0,1,.15.442,1.837,1.837,0,0,1,.043.374,0.4,0.4,0,0,1-.171.331,1.39,1.39,0,0,1-.578.2q-0.407.068-1.155,0.119l-0.086.663Zm-1.113-9.349h0.15l1.69,4.454q-0.364.017-.963,0.051t-1.027.034H70.153ZM91.463,46.54l0.128-.578-0.085-.068a2.965,2.965,0,0,1-1.444-.323,4.145,4.145,0,0,1-1.209-1.122L86.5,41.491A6.056,6.056,0,0,0,88.821,40.1a2.637,2.637,0,0,0,.824-1.87,2.2,2.2,0,0,0-1.155-1.955,5.955,5.955,0,0,0-3.145-.714q-0.6.017-1.038,0.034t-0.877.026q-0.439.009-.717,0.008-0.3,0-.706-0.008L81.214,35.6q-0.385-.008-0.877-0.026l-0.15.748,0.043,0.068q0.535-.034.728-0.034a0.819,0.819,0,0,1,.631.187,1.18,1.18,0,0,1,.16.731l-0.021,7.14a1.268,1.268,0,0,1-.31.994,2.55,2.55,0,0,1-1.316.349l-0.192.765q0.791-.034,1.359-0.051t1.1,0q0.385,0,.781.008L83.878,46.5q0.331,0.008.76,0.025l0.193-.714-0.043-.068a4.046,4.046,0,0,1-1.016-.093,0.581,0.581,0,0,1-.428-0.391,3.176,3.176,0,0,1-.1-0.909l0.064-2.533h1.776l2.289,3.3A4.917,4.917,0,0,0,88.5,46.285a1.986,1.986,0,0,0,1.145.442Zm-8.109-5.678q0.021-.9.075-1.87t0.139-2.312a0.535,0.535,0,0,1,.1-0.314,0.407,0.407,0,0,1,.289-0.077,6.05,6.05,0,0,1,2.942.561,1.823,1.823,0,0,1,.974,1.683,2.078,2.078,0,0,1-.353,1.241,2.733,2.733,0,0,1-.8.765,5.309,5.309,0,0,1-1.155.493Zm21.182,5.678,0.128-.578-0.085-.068a2.963,2.963,0,0,1-1.444-.323,4.132,4.132,0,0,1-1.209-1.122l-2.354-2.958a6.067,6.067,0,0,0,2.322-1.394,2.636,2.636,0,0,0,.823-1.87,2.2,2.2,0,0,0-1.155-1.955,5.955,5.955,0,0,0-3.145-.714q-0.6.017-1.038,0.034t-0.877.026q-0.439.009-.717,0.008-0.3,0-.706-0.008L94.287,35.6q-0.385-.008-0.877-0.026l-0.15.748L93.3,36.391q0.534-.034.727-0.034a0.819,0.819,0,0,1,.631.187,1.18,1.18,0,0,1,.16.731L94.8,44.415a1.268,1.268,0,0,1-.31.994,2.55,2.55,0,0,1-1.316.349l-0.193.765q0.791-.034,1.359-0.051t1.1,0q0.385,0,.781.008L96.951,46.5q0.332,0.008.76,0.025l0.192-.714-0.043-.068a4.046,4.046,0,0,1-1.016-.093,0.581,0.581,0,0,1-.428-0.391,3.172,3.172,0,0,1-.1-0.909l0.064-2.533H98.16l2.289,3.3a4.923,4.923,0,0,0,1.124,1.173,1.985,1.985,0,0,0,1.144.442Zm-8.109-5.678q0.021-.9.075-1.87t0.139-2.312a0.535,0.535,0,0,1,.1-0.314,0.407,0.407,0,0,1,.289-0.077,6.05,6.05,0,0,1,2.942.561,1.822,1.822,0,0,1,.973,1.683,2.073,2.073,0,0,1-.353,1.241,2.723,2.723,0,0,1-.8.765,5.314,5.314,0,0,1-1.155.493Zm17.8,5.338a7.258,7.258,0,0,0,2.279-1.275,5.948,5.948,0,0,0,1.519-1.9,5.193,5.193,0,0,0,.546-2.363,4.887,4.887,0,0,0-.77-2.728,5.208,5.208,0,0,0-2.129-1.844,7.116,7.116,0,0,0-3.156-.663,8.131,8.131,0,0,0-2.76.459,7.173,7.173,0,0,0-2.247,1.275,5.885,5.885,0,0,0-1.5,1.9,5.253,5.253,0,0,0-.535,2.346A4.942,4.942,0,0,0,108.312,46a6.878,6.878,0,0,0,3.092.663A8.455,8.455,0,0,0,114.228,46.2ZM109.6,45.163a4.37,4.37,0,0,1-1.679-1.742,5.308,5.308,0,0,1-.6-2.558,4.569,4.569,0,0,1,.567-2.3A4.042,4.042,0,0,1,109.457,37a4.707,4.707,0,0,1,2.332-.561,5.009,5.009,0,0,1,2.546.629,4.519,4.519,0,0,1,1.712,1.734,5.152,5.152,0,0,1,.621,2.567,4.44,4.44,0,0,1-.589,2.3,4.157,4.157,0,0,1-1.615,1.555,4.925,4.925,0,0,1-2.4.561A4.819,4.819,0,0,1,109.6,45.163Zm19.353,1.326a18.139,18.139,0,0,0,2.118-.51l0.128-.153c0.043-.306.1-0.62,0.161-0.944s0.128-.623.192-0.9,0.139-.587.225-0.926l-1.027.068a3.733,3.733,0,0,1-1.3,2.031,3.855,3.855,0,0,1-2.342.654,5.168,5.168,0,0,1-2.579-.62,4.339,4.339,0,0,1-1.711-1.734,5.343,5.343,0,0,1-.61-2.609,4.552,4.552,0,0,1,.578-2.346,3.932,3.932,0,0,1,1.636-1.53,5.39,5.39,0,0,1,2.493-.544,5.5,5.5,0,0,1,2.364.391,1.264,1.264,0,0,1,.781,1.19,8.024,8.024,0,0,1-.064.833l1.027-.068a12.636,12.636,0,0,1,.193-1.428q0.127-.646.342-1.411l-0.086-.1q-0.663-.119-1.2-0.2t-1.2-.145q-0.663-.059-1.327-0.059a9.6,9.6,0,0,0-2.984.442,7.4,7.4,0,0,0-2.365,1.249,5.787,5.787,0,0,0-1.562,1.9,5.2,5.2,0,0,0-.556,2.388,4.873,4.873,0,0,0,.792,2.779,5.139,5.139,0,0,0,2.225,1.827,8.165,8.165,0,0,0,3.381.646A13.476,13.476,0,0,0,128.949,46.489Zm6.579,0.009q0.845-.043,1.508-0.043c0.4,0,.942.006,1.626,0.017s1.451,0.026,2.3.042,1.7,0.037,2.557.059l0.107-.1q0.107-.7.268-1.513t0.31-1.343l-0.064-.085-0.942.085a4.715,4.715,0,0,1-.321,1.113,1.269,1.269,0,0,1-.6.62,3.364,3.364,0,0,1-1.177.272q-0.769.068-2.032,0.068a6.59,6.59,0,0,1-1.124-.068,0.6,0.6,0,0,1-.46-0.28,1.58,1.58,0,0,1-.107-0.672l0.086-3.57,0.214-3.961a1.18,1.18,0,0,1,.1-0.459,0.491,0.491,0,0,1,.4-0.17q0.321-.034,1.006-0.034,1.134,0,1.8.034a3.439,3.439,0,0,1,.974.153,0.657,0.657,0,0,1,.406.365,1.841,1.841,0,0,1,.1.654c0,0.079,0,.2-0.01.349s-0.018.28-.032,0.382l1.027-.068q0.042-.425.107-0.918t0.171-.994q0.106-.5.214-0.91l-0.065-.1q-0.7.068-1.54,0.119t-2,.068q-1.165.017-2.877,0.017c-0.314,0-.657,0-1.027-0.008s-0.728-.014-1.07-0.026-0.635-.017-0.877-0.017l-0.15.748,0.043,0.068c0.114-.011.242-0.02,0.385-0.026s0.257-.008.342-0.008a0.816,0.816,0,0,1,.642.187,1.245,1.245,0,0,1,.15.731l-0.022,7.14a1.281,1.281,0,0,1-.353,1.028,2.548,2.548,0,0,1-1.316.4l-0.128.782Q134.683,46.539,135.528,46.5Zm2.631-5.151c0.364-.028.681-0.042,0.953-0.042q0.62,0,1.508.017t1.487,0.034l0.3-1-0.086-.085q-0.727.068-1.487,0.127t-1.123.059q-0.365,0-.856-0.008t-0.92-.009h-0.578l-0.192,1.02C137.464,41.412,137.8,41.375,138.159,41.347Zm20.08,5.193,0.129-.578-0.086-.068a2.965,2.965,0,0,1-1.444-.323,4.144,4.144,0,0,1-1.209-1.122l-2.353-2.958A6.054,6.054,0,0,0,155.6,40.1a2.638,2.638,0,0,0,.824-1.87,2.2,2.2,0,0,0-1.156-1.955,5.952,5.952,0,0,0-3.145-.714q-0.6.017-1.038,0.034c-0.292.011-.585,0.02-0.877,0.026s-0.531.008-.717,0.008-0.435,0-.706-0.008l-0.791-.017q-0.386-.008-0.878-0.026l-0.149.748,0.042,0.068q0.535-.034.728-0.034a0.818,0.818,0,0,1,.631.187,1.179,1.179,0,0,1,.161.731l-0.022,7.14a1.267,1.267,0,0,1-.31.994,2.552,2.552,0,0,1-1.316.349l-0.192.765q0.79-.034,1.358-0.051t1.1,0q0.386,0,.781.008l0.727,0.017c0.221,0.006.475,0.014,0.76,0.025l0.193-.714-0.043-.068a4.036,4.036,0,0,1-1.016-.093,0.579,0.579,0,0,1-.428-0.391,3.138,3.138,0,0,1-.1-0.909l0.064-2.533h1.776l2.29,3.3a4.92,4.92,0,0,0,1.123,1.173,1.988,1.988,0,0,0,1.145.442Zm-8.109-5.678q0.021-.9.075-1.87t0.139-2.312a0.528,0.528,0,0,1,.1-0.314,0.4,0.4,0,0,1,.288-0.077,6.047,6.047,0,0,1,2.942.561,1.823,1.823,0,0,1,.974,1.683,2.08,2.08,0,0,1-.353,1.241,2.737,2.737,0,0,1-.8.765,5.29,5.29,0,0,1-1.155.493Zm10.923,5.652q0.695-.06,1.166-0.059c0.242,0,.535,0,0.877.008l1.027,0.017q0.513,0.008.9,0.026l0.192-.782-0.042-.068c-0.129.011-.3,0.023-0.514,0.034s-0.421.017-.62,0.017a0.931,0.931,0,0,1-.749-0.238,1.538,1.538,0,0,1-.193-0.918q0-.527.022-1.386t0.064-1.887q0.042-1.028.1-2.082t0.118-1.989a0.84,0.84,0,0,1,.353-0.688,3.015,3.015,0,0,1,1.187-.28l0.086-.765q-0.621.068-1.316,0.11c-0.464.028-.845,0.043-1.145,0.043s-0.724-.006-1.23-0.017-0.945-.023-1.316-0.034l-0.15.748,0.043,0.068c0.143-.011.3-0.02,0.482-0.026s0.317-.008.417-0.008a0.819,0.819,0,0,1,.631.187,1.18,1.18,0,0,1,.16.731l-0.021,7.14a1.261,1.261,0,0,1-.353,1.011,2.914,2.914,0,0,1-1.359.45l-0.128.782Q160.358,46.573,161.053,46.514Zm12.1,0.111q0.9-.085,1.637-0.127t1.551-.043c0.243,0,.542,0,0.9.008s0.813,0.02,1.369.043l0.15-.7-0.043-.068a3.28,3.28,0,0,1-1.358-.323,1.723,1.723,0,0,1-.7-0.884q-0.407-.952-0.813-2t-0.781-2.065q-0.375-1.02-.706-1.929t-0.578-1.615q-0.246-.705-0.524-1.5h-0.171l-1.348.289L167.568,44.4a2.659,2.659,0,0,1-.706.986,1.842,1.842,0,0,1-.963.323l-0.171.8q0.748-.034,1.294-0.043t1.059-.008q0.707,0,1.391.026t1.583,0.093l0.129-.731-0.043-.068h-1.22a2.208,2.208,0,0,1-.973-0.162,0.557,0.557,0,0,1-.31-0.535,2.016,2.016,0,0,1,.192-0.663l0.792-1.768q0.363-.034,1.038-0.085t1.294-.051H173.1c0.463,0,.824.006,1.08,0.017l0.706,1.853a2.173,2.173,0,0,1,.15.442,1.8,1.8,0,0,1,.043.374,0.4,0.4,0,0,1-.171.331,1.394,1.394,0,0,1-.578.2q-0.407.068-1.155,0.119l-0.086.663Zm-1.112-9.349h0.149l1.691,4.454q-0.364.017-.963,0.051t-1.027.034h-1.883Zm23.953,9.519q0.309-.136.845-0.391V46.132l-3-2.006a3.793,3.793,0,0,0,.642-1.062,2.969,2.969,0,0,0,.214-1.079,1.922,1.922,0,0,0-.235-0.926,2.183,2.183,0,0,0-.664-0.739l0.065-.1H196a6.14,6.14,0,0,0,1.081-.059,0.658,0.658,0,0,0,.417-0.281l0.278-.527-0.214-.408a0.713,0.713,0,0,1-.342.085q-0.3.034-1.305,0.1l-4.408.2a2.958,2.958,0,0,0-1.134.306l0.3,0.731c0.242-.045.46-0.082,0.652-0.111a3.934,3.934,0,0,1,.567-0.042,1.537,1.537,0,0,1,1.273.493,2.394,2.394,0,0,1,.4,1.513,2.686,2.686,0,0,1-.385,1.462l-3.423-2.346q-1.263-.867-1.969-1.462a4.193,4.193,0,0,1-.984-1.1,2.151,2.151,0,0,1-.278-1.062,1.086,1.086,0,0,1,.513-0.944,2.4,2.4,0,0,1,1.37-.348,2.83,2.83,0,0,1,1.048.178,6.18,6.18,0,0,1,1.22.739,0.827,0.827,0,0,0,.107-0.009,0.837,0.837,0,0,1,.107-0.008l1.027-1.258-0.043-.255a9.776,9.776,0,0,0-2.589-.391,6.251,6.251,0,0,0-2.183.357,3.845,3.845,0,0,0-1.519.96,1.984,1.984,0,0,0-.556,1.385,2.314,2.314,0,0,0,.428,1.266,6.645,6.645,0,0,0,1.327,1.4v0.119a9.427,9.427,0,0,0-1.413.68,3.774,3.774,0,0,0-.984.876,1.969,1.969,0,0,0-.428,1.266,2.318,2.318,0,0,0,.557,1.555,3.542,3.542,0,0,0,1.594,1.011,7.464,7.464,0,0,0,2.428.357,6.55,6.55,0,0,0,2.225-.408,7.11,7.11,0,0,0,2.033-1.122q1.261,0.884,1.947,1.343a3.792,3.792,0,0,0,.77.459A1.323,1.323,0,0,0,195.993,46.795Zm-9.458-1.81a1.759,1.759,0,0,1-.47-2.8A3.221,3.221,0,0,1,187.4,41.3l4.814,3.417a4.417,4.417,0,0,1-1.4.646,6.3,6.3,0,0,1-1.68.221A4.894,4.894,0,0,1,186.535,44.984Zm24.98,1.5a18.139,18.139,0,0,0,2.118-.51l0.129-.153q0.065-.459.16-0.944t0.193-.9q0.1-.416.225-0.926l-1.027.068a3.739,3.739,0,0,1-1.295,2.031,3.856,3.856,0,0,1-2.343.654,5.164,5.164,0,0,1-2.578-.62,4.348,4.348,0,0,1-1.712-1.734,5.354,5.354,0,0,1-.609-2.609,4.561,4.561,0,0,1,.577-2.346,3.935,3.935,0,0,1,1.637-1.53,5.39,5.39,0,0,1,2.493-.544,5.5,5.5,0,0,1,2.364.391,1.265,1.265,0,0,1,.781,1.19,8.319,8.319,0,0,1-.064.833l1.027-.068a12.647,12.647,0,0,1,.192-1.428q0.129-.646.343-1.411l-0.086-.1q-0.663-.119-1.2-0.2t-1.2-.145q-0.665-.059-1.327-0.059a9.609,9.609,0,0,0-2.985.442,7.38,7.38,0,0,0-2.364,1.249,5.775,5.775,0,0,0-1.562,1.9,5.2,5.2,0,0,0-.556,2.388,4.873,4.873,0,0,0,.792,2.779,5.139,5.139,0,0,0,2.225,1.827,8.163,8.163,0,0,0,3.38.646A13.459,13.459,0,0,0,211.515,46.489Zm10.976,0.136q0.9-.085,1.637-0.127t1.551-.043c0.243,0,.542,0,0.9.008s0.813,0.02,1.369.043l0.15-.7-0.043-.068a3.28,3.28,0,0,1-1.358-.323,1.723,1.723,0,0,1-.7-0.884q-0.406-.952-0.813-2t-0.781-2.065q-0.373-1.02-.706-1.929t-0.578-1.615q-0.246-.705-0.524-1.5h-0.171l-1.348.289L216.907,44.4a2.659,2.659,0,0,1-.706.986,1.842,1.842,0,0,1-.963.323l-0.171.8q0.748-.034,1.294-0.043t1.059-.008q0.707,0,1.391.026t1.583,0.093l0.129-.731-0.043-.068h-1.22a2.208,2.208,0,0,1-.973-0.162,0.557,0.557,0,0,1-.31-0.535,2.016,2.016,0,0,1,.192-0.663l0.792-1.768q0.363-.034,1.038-0.085t1.294-.051h1.145c0.463,0,.824.006,1.08,0.017l0.706,1.853a2.173,2.173,0,0,1,.15.442,1.8,1.8,0,0,1,.043.374,0.4,0.4,0,0,1-.171.331,1.394,1.394,0,0,1-.578.2q-0.407.068-1.155,0.119l-0.086.663Zm-1.112-9.349h0.149l1.691,4.454q-0.364.017-.963,0.051t-1.027.034h-1.883Zm9.639,9.213q0.544-.017,1.07-0.026t0.866-.008c0.242,0,.553,0,0.931.008l1.166,0.017c0.4,0.006.749,0.014,1.048,0.026l0.193-.782-0.064-.068q-0.536.051-1.177,0.051a1.354,1.354,0,0,1-.942-0.264,1.194,1.194,0,0,1-.278-0.892q0-1.037.032-2.261t0.075-2.405q0.044-1.181.107-2.133t0.129-1.462q1.155,0.051,1.818.119a2.528,2.528,0,0,1,1,.263,1.166,1.166,0,0,1,.492.629,8.083,8.083,0,0,1,.311,1.2l1-.068q-0.064-.459-0.139-0.969t-0.118-1.011c-0.028-.334-0.05-0.632-0.064-0.892l-0.192-.136-1.819.187H229.83l-1.776-.187-0.192.136q-0.022.391-.064,0.892t-0.107,1.028q-0.065.527-.15,1.02l1-.068a7.529,7.529,0,0,1,.279-1.173,1.1,1.1,0,0,1,.492-0.62,2.669,2.669,0,0,1,1.059-.255q0.717-.059,1.958-0.094V43.7a5.321,5.321,0,0,1-.118,1.317,0.8,0.8,0,0,1-.567.561,6.71,6.71,0,0,1-1.455.212l-0.171.731Q230.472,46.506,231.018,46.489ZM241.737,46.5q0.845-.043,1.508-0.043,0.6,0,1.626.017t2.3,0.042q1.272,0.026,2.556.059l0.107-.1q0.108-.7.268-1.513t0.31-1.343l-0.064-.085-0.942.085a4.768,4.768,0,0,1-.32,1.113,1.275,1.275,0,0,1-.6.62,3.363,3.363,0,0,1-1.176.272q-0.771.068-2.033,0.068a6.577,6.577,0,0,1-1.123-.068,0.6,0.6,0,0,1-.46-0.28,1.564,1.564,0,0,1-.107-0.672l0.085-3.57,0.214-3.961a1.159,1.159,0,0,1,.1-0.459,0.487,0.487,0,0,1,.395-0.17q0.321-.034,1.006-0.034,1.134,0,1.8.034a3.439,3.439,0,0,1,.974.153,0.657,0.657,0,0,1,.406.365,1.816,1.816,0,0,1,.1.654c0,0.079,0,.2-0.011.349s-0.018.28-.032,0.382l1.027-.068q0.042-.425.107-0.918c0.043-.329.1-0.66,0.171-0.994s0.142-.637.214-0.91l-0.064-.1q-0.707.068-1.541,0.119t-2,.068q-1.167.017-2.878,0.017-0.471,0-1.027-.008t-1.07-.026c-0.342-.011-0.635-0.017-0.877-0.017l-0.15.748,0.043,0.068c0.114-.011.242-0.02,0.385-0.026s0.257-.008.342-0.008a0.816,0.816,0,0,1,.642.187,1.245,1.245,0,0,1,.15.731l-0.021,7.14a1.285,1.285,0,0,1-.353,1.028,2.552,2.552,0,0,1-1.316.4l-0.129.782Q240.892,46.539,241.737,46.5Zm2.632-5.151c0.363-.028.681-0.042,0.952-0.042q0.62,0,1.508.017t1.487,0.034l0.3-1-0.086-.085q-0.728.068-1.487,0.127c-0.506.04-.881,0.059-1.123,0.059s-0.528,0-.856-0.008-0.635-.009-0.92-0.009h-0.578l-0.192,1.02Q243.823,41.389,244.369,41.347Zm20.08,5.193,0.128-.578-0.086-.068a2.965,2.965,0,0,1-1.444-.323,4.157,4.157,0,0,1-1.209-1.122l-2.353-2.958a6.054,6.054,0,0,0,2.321-1.394,2.638,2.638,0,0,0,.824-1.87,2.2,2.2,0,0,0-1.155-1.955,5.959,5.959,0,0,0-3.146-.714q-0.6.017-1.037,0.034c-0.293.011-.585,0.02-0.878,0.026s-0.531.008-.716,0.008c-0.2,0-.436,0-0.706-0.008L254.2,35.6q-0.385-.008-0.877-0.026l-0.15.748,0.043,0.068c0.356-.023.6-0.034,0.727-0.034a0.818,0.818,0,0,1,.631.187,1.179,1.179,0,0,1,.161.731l-0.022,7.14a1.267,1.267,0,0,1-.31.994,2.549,2.549,0,0,1-1.316.349l-0.192.765q0.79-.034,1.358-0.051c0.378-.011.746-0.011,1.1,0q0.386,0,.781.008l0.728,0.017q0.332,0.008.759,0.025l0.193-.714-0.043-.068a4.041,4.041,0,0,1-1.016-.093,0.579,0.579,0,0,1-.428-0.391,3.181,3.181,0,0,1-.1-0.909l0.064-2.533h1.776l2.289,3.3a4.92,4.92,0,0,0,1.123,1.173,1.988,1.988,0,0,0,1.145.442Zm-8.109-5.678q0.021-.9.074-1.87t0.139-2.312a0.543,0.543,0,0,1,.1-0.314,0.407,0.407,0,0,1,.289-0.077,6.053,6.053,0,0,1,2.942.561,1.824,1.824,0,0,1,.973,1.683,2.08,2.08,0,0,1-.353,1.241,2.734,2.734,0,0,1-.8.765,5.322,5.322,0,0,1-1.156.493Zm10.922,5.652q0.695-.06,1.166-0.059,0.365,0,.877.008l1.027,0.017c0.343,0.006.642,0.014,0.9,0.026l0.193-.782-0.043-.068c-0.129.011-.3,0.023-0.514,0.034s-0.421.017-.62,0.017a0.932,0.932,0,0,1-.749-0.238,1.546,1.546,0,0,1-.193-0.918q0-.527.022-1.386t0.064-1.887q0.042-1.028.1-2.082t0.118-1.989a0.84,0.84,0,0,1,.353-0.688,3.02,3.02,0,0,1,1.187-.28l0.086-.765q-0.621.068-1.316,0.11c-0.464.028-.845,0.043-1.145,0.043s-0.724-.006-1.23-0.017-0.945-.023-1.316-0.034l-0.149.748,0.042,0.068c0.143-.011.3-0.02,0.482-0.026s0.317-.008.417-0.008a0.818,0.818,0,0,1,.631.187,1.179,1.179,0,0,1,.161.731l-0.022,7.14a1.257,1.257,0,0,1-.353,1.011,2.913,2.913,0,0,1-1.358.45l-0.129.782Q266.567,46.573,267.262,46.514ZM285.288,46.9l0.3-9.553a0.917,0.917,0,0,1,.374-0.748,2.216,2.216,0,0,1,1.081-.323l0.107-.782q-0.685.068-1.177,0.1c-0.329.023-.642,0.034-0.942,0.034q-0.277,0-.62-0.008t-0.663-.026q-0.321-.017-0.749-0.034l-0.193.765,0.043,0.068q0.534-.017.813-0.017a0.712,0.712,0,0,1,.535.178,0.775,0.775,0,0,1,.171.553V43.99h-0.107q-0.792-.9-1.5-1.7t-1.626-1.87q-0.92-1.071-1.957-2.312t-2.108-2.55q-0.428.034-.749,0.051t-0.685.017q-0.3,0-.738-0.026c-0.292-.017-0.66-0.037-1.1-0.059l-0.171.629,0.064,0.085a4,4,0,0,1,1.466.306,0.787,0.787,0,0,1,.4.748l-0.278,7.429a0.943,0.943,0,0,1-.343.765,2.007,2.007,0,0,1-.984.306l-0.107.782q0.642-.068,1.1-0.1t0.888-.034q0.342,0,.738.008t0.738,0.026q0.342,0.017.792,0.034l0.193-.765-0.043-.068q-0.45,0-.717.008c-0.178.006-.3,0.008-0.374,0.008a0.7,0.7,0,0,1-.514-0.153,0.742,0.742,0,0,1-.15-0.527l0.107-7.258h0.107q1.3,1.462,2.418,2.745t2.546,2.983q1.434,1.7,3,3.638Zm12.153-.434a22.358,22.358,0,0,0,2.439-.586l0.128-.153a3.871,3.871,0,0,1-.106-0.638,8.259,8.259,0,0,1-.043-0.858,11.358,11.358,0,0,1,.064-1.36,2.653,2.653,0,0,1,.2-0.8,1.127,1.127,0,0,1,.4-0.459l-0.086-.374-0.952.059q-0.417.026-.888,0.026-0.621,0-1.251-.017t-1.466-.051l-0.193.85,0.043,0.068h1.477a1.763,1.763,0,0,1,.952.17,0.925,0.925,0,0,1,.224.748v2.074a8.9,8.9,0,0,1-1.412.484,6.445,6.445,0,0,1-1.519.162,5.161,5.161,0,0,1-2.567-.612,4.3,4.3,0,0,1-1.7-1.725,5.343,5.343,0,0,1-.61-2.609,4.512,4.512,0,0,1,.61-2.405,3.859,3.859,0,0,1,1.765-1.513,6.763,6.763,0,0,1,2.781-.518,6.381,6.381,0,0,1,2.472.348,1.184,1.184,0,0,1,.759,1.148,8.7,8.7,0,0,1-.064.918l1.006-.068a10.962,10.962,0,0,1,.2-1.428q0.138-.646.353-1.411l-0.086-.1q-0.792-.119-1.412-0.2t-1.348-.145q-0.728-.059-1.391-0.059a9.581,9.581,0,0,0-3.926.757,6.219,6.219,0,0,0-2.642,2.1,5.309,5.309,0,0,0-.942,3.128,4.97,4.97,0,0,0,.771,2.779,5.03,5.03,0,0,0,2.171,1.827,7.831,7.831,0,0,0,3.306.646A14.419,14.419,0,0,0,297.441,46.463Z"/>
</svg>
